<svg xmlns="http://www.w3.org/2000/svg" viewBox="0 0 48 48" fill="none">
  <path d="M24 4C12.954 4 4 12.954 4 24c0 3.53.93 6.934 2.695 9.953L4.08 43.33a1 1 0 0 0 1.225 1.26l9.605-2.74A19.9 19.9 0 0 0 24 44c11.046 0 20-8.954 20-20S35.046 4 24 4Z" fill="#25D366"/>
  <path d="M34.6 28.8c-.55-.275-3.25-1.6-3.75-1.787-.5-.175-.875-.275-1.25.275s-1.425 1.787-1.75 2.162c-.325.375-.65.412-1.2.137-.55-.275-2.325-.856-4.425-2.731-1.637-1.462-2.737-3.262-3.062-3.812-.325-.55-.037-.85.237-1.125.25-.25.55-.65.825-.975.275-.325.375-.55.55-.925.175-.375.087-.7-.05-.975-.138-.275-1.25-3.012-1.713-4.125-.45-1.075-.912-.925-1.25-.937-.325-.013-.7-.013-1.075-.013s-.975.138-1.487.688c-.513.55-1.95 1.9-1.95 4.637s2 5.375 2.275 5.75 3.925 5.988 9.512 8.4c1.325.575 2.362.912 3.175 1.175 1.337.425 2.55.362 3.512.225 1.075-.162 3.25-1.325 3.713-2.612.462-1.288.462-2.388.325-2.613-.137-.225-.513-.362-1.063-.637Z" fill="#fff"/>
</svg>
